<svg width="292" height="75" viewBox="0 0 292 75" fill="none" xmlns="http://www.w3.org/2000/svg">
<path d="M255.863 71.7805V27.0615H263.964V47.6087H264.509L281.956 27.0615H291.847L274.554 47.1283L292 71.7805H282.262L268.92 52.609L263.964 58.4609V71.7805H255.863Z" fill="#E44D4D"/>
<path d="M248.444 42.1501H240.278C240.045 40.8109 239.615 39.6245 238.989 38.5909C238.363 37.5428 237.584 36.6549 236.653 35.927C235.721 35.1992 234.659 34.6533 233.465 34.2894C232.286 33.9109 231.012 33.7216 229.644 33.7216C227.213 33.7216 225.058 34.333 223.18 35.5558C221.303 36.764 219.832 38.54 218.77 40.8837C217.707 43.2128 217.176 46.0587 217.176 49.4213C217.176 52.8422 217.707 55.7245 218.77 58.0682C219.847 60.3973 221.317 62.1587 223.18 63.3523C225.058 64.5315 227.205 65.121 229.622 65.121C230.961 65.121 232.213 64.9463 233.378 64.597C234.557 64.233 235.612 63.7017 236.544 63.003C237.49 62.3042 238.283 61.4454 238.924 60.4264C239.579 59.4074 240.03 58.2429 240.278 56.9327L248.444 56.9764C248.138 59.1017 247.476 61.096 246.457 62.9593C245.453 64.8226 244.135 66.4675 242.505 67.8941C240.874 69.3061 238.967 70.4125 236.784 71.2131C234.6 71.9992 232.177 72.3922 229.513 72.3922C225.582 72.3922 222.074 71.4824 218.988 69.6628C215.902 67.8432 213.471 65.2156 211.695 61.7802C209.919 58.3447 209.031 54.2251 209.031 49.4213C209.031 44.603 209.926 40.4834 211.717 37.0625C213.507 33.627 215.946 30.9995 219.032 29.1799C222.118 27.3602 225.611 26.4504 229.513 26.4504C232.002 26.4504 234.316 26.7998 236.456 27.4985C238.596 28.1973 240.503 29.2235 242.177 30.5773C243.851 31.9166 245.227 33.5615 246.304 35.5122C247.396 37.4482 248.109 39.6609 248.444 42.1501Z" fill="#E44D4D"/>
<path d="M129.462 71.7805V27.0615H137.563V64.9897H157.259V71.7805H129.462Z" fill="#E44D4D"/>
<path d="M100.061 71.7805H84.9072V27.0615H100.367C104.807 27.0615 108.621 27.9568 111.808 29.7473C115.011 31.5232 117.471 34.078 119.189 37.4115C120.907 40.7451 121.765 44.7337 121.765 49.3774C121.765 54.0356 120.899 58.0387 119.167 61.3868C117.449 64.7349 114.967 67.3043 111.721 69.0948C108.49 70.8853 104.603 71.7805 100.061 71.7805ZM93.0082 64.7713H99.668C102.783 64.7713 105.382 64.2036 107.463 63.0682C109.545 61.9182 111.11 60.2077 112.158 57.9368C113.206 55.6514 113.73 52.7982 113.73 49.3774C113.73 45.9565 113.206 43.1179 112.158 40.8615C111.11 38.5906 109.559 36.8948 107.507 35.7739C105.469 34.6384 102.936 34.0707 99.9082 34.0707H93.0082V64.7713Z" fill="#2A2A2A"/>
<path d="M46.1547 71.7805H37.5078L53.2512 27.0615H63.2518L79.017 71.7805H70.3702L58.4262 36.2324H58.0768L46.1547 71.7805ZM46.4385 54.2467H70.0208V60.7536H46.4385V54.2467Z" fill="#2A2A2A"/>
<path d="M0 71.7805V27.0615H17.119C20.3506 27.0615 23.0364 27.571 25.1763 28.59C27.3307 29.5944 28.9392 30.9701 30.0019 32.7169C31.0791 34.4637 31.6177 36.4435 31.6177 38.6561C31.6177 40.4758 31.2684 42.0334 30.5696 43.3289C29.8709 44.6099 28.932 45.6508 27.7529 46.4514C26.5737 47.252 25.2563 47.827 23.8006 48.1764V48.6131C25.3874 48.7005 26.9086 49.1881 28.3643 50.0761C29.8345 50.9495 31.0355 52.1868 31.9671 53.7881C32.8987 55.3894 33.3646 57.3255 33.3646 59.5963C33.3646 61.9109 32.8041 63.9925 31.6832 65.8413C30.5624 67.6755 28.8737 69.1239 26.6174 70.1865C24.3611 71.2492 21.5225 71.7805 18.1016 71.7805H0ZM8.10095 65.0115H16.8133C19.7538 65.0115 21.8718 64.4511 23.1674 63.3302C24.4775 62.1948 25.1326 60.7391 25.1326 58.9631C25.1326 57.6384 24.8051 56.4448 24.15 55.3821C23.4949 54.3049 22.5633 53.4606 21.3551 52.8492C20.1468 52.2232 18.7057 51.9103 17.0317 51.9103H8.10095V65.0115ZM8.10095 46.0802H16.1146C17.512 46.0802 18.7712 45.8255 19.8921 45.316C21.013 44.7919 21.8937 44.0568 22.5342 43.1106C23.1892 42.1498 23.5168 41.0144 23.5168 39.7042C23.5168 37.972 22.9054 36.5454 21.6826 35.4245C20.4744 34.3036 18.6766 33.7432 16.2892 33.7432H8.10095V46.0802Z" fill="#2A2A2A"/>
<path fill-rule="evenodd" clip-rule="evenodd" d="M172.249 17.4348C172.263 11.2712 176.841 6.71873 181.961 6.71873C187.082 6.71873 191.666 11.2839 191.666 17.4626V35.7864H198.385V17.4626C198.385 8.06606 191.267 0 181.961 0C172.65 0 165.531 8.065 165.531 17.4626V17.4922L165.641 23.758L172.359 23.6396L172.249 17.4348Z" fill="#2A2A2A"/>
<path d="M183.555 49.7799L183.842 55.1732C183.845 55.2279 183.837 55.2827 183.818 55.3341C183.8 55.3856 183.77 55.4326 183.732 55.4722C183.695 55.5117 183.649 55.5431 183.598 55.5642C183.548 55.5852 183.493 55.5956 183.439 55.5947H180.012C179.898 55.5809 179.793 55.5239 179.719 55.4353C179.645 55.3468 179.608 55.2333 179.615 55.1183L180.299 49.7799C179.944 49.5018 179.657 49.1468 179.459 48.7416C179.261 48.3363 179.158 47.8915 179.157 47.4406C179.093 46.7116 179.321 45.9871 179.791 45.4264C180.262 44.8657 180.935 44.5147 181.664 44.4508C182.393 44.3868 183.118 44.615 183.679 45.0852C184.239 45.5554 184.59 46.2291 184.654 46.9581C184.741 47.4838 184.685 48.0232 184.491 48.5198C184.298 49.0163 183.974 49.4516 183.555 49.7799Z" fill="#E44D4D"/>
<path fill-rule="evenodd" clip-rule="evenodd" d="M181.912 33.3557C179.396 33.3564 176.919 33.982 174.705 35.1763L171.515 29.2629C174.71 27.5401 178.282 26.6378 181.911 26.637H181.912C194.558 26.637 204.652 37.5004 204.652 50.3724C204.652 63.2431 194.559 74.114 181.912 74.114C169.52 74.114 159.53 63.665 159.185 51.0505L165.902 50.867C166.155 60.1556 173.463 67.3952 181.912 67.3952C190.532 67.3952 197.933 59.8568 197.933 50.3724C197.933 40.8896 190.534 33.3561 181.912 33.3557" fill="#2A2A2A"/>
<path d="M175.327 34.8581L174.552 35.249C174.508 35.2719 174.46 35.2859 174.411 35.29C174.362 35.2941 174.313 35.2883 174.266 35.2729C174.219 35.2575 174.176 35.2328 174.139 35.2004C174.102 35.168 174.072 35.1284 174.051 35.0841L171.357 29.7213C171.338 29.6768 171.328 29.629 171.327 29.5806C171.327 29.5322 171.336 29.4842 171.354 29.4393C171.372 29.3945 171.399 29.3536 171.433 29.3192C171.467 29.2848 171.508 29.2575 171.553 29.2388L172.347 28.8601L173.819 31.8469L175.327 34.8581Z" fill="#2A2A2A"/>
<path d="M166.483 33.4716L167.161 32.8181C167.196 32.7834 167.237 32.7564 167.283 32.739C167.329 32.7215 167.378 32.714 167.427 32.7169C167.476 32.7198 167.524 32.733 167.568 32.7557C167.611 32.7784 167.65 32.8101 167.68 32.8486L171.571 37.4479C171.632 37.5271 171.659 37.6268 171.648 37.726C171.636 37.8251 171.587 37.9159 171.51 37.9793L170.85 38.5901L168.706 36.0248L166.483 33.4716Z" fill="#E44D4D"/>
<path d="M166.471 46.7379L166.331 47.703C166.327 47.7527 166.313 47.8011 166.29 47.8452C166.267 47.8892 166.234 47.928 166.195 47.959C166.156 47.99 166.111 48.0126 166.063 48.0253C166.015 48.038 165.965 48.0405 165.915 48.0328L159.985 47.0983C159.886 47.075 159.801 47.0139 159.747 46.9281C159.693 46.8424 159.675 46.739 159.697 46.6402L159.844 45.895L163.112 46.2859L166.471 46.7379Z" fill="#E44D4D"/>
<path d="M165.921 51.4351C165.921 51.5206 165.854 51.5634 165.768 51.5695L162.568 51.6489L159.367 51.7344C159.276 51.7344 159.221 51.6978 159.215 51.6245L159.178 51.0137C159.178 50.8549 159.331 50.7144 159.532 50.7083L165.506 50.5617C165.598 50.5507 165.69 50.5748 165.765 50.6292C165.84 50.6835 165.891 50.7642 165.909 50.8549L165.921 51.4351Z" fill="#2A2A2A"/>
<path fill-rule="evenodd" clip-rule="evenodd" d="M171.206 38.2493C168.57 40.7073 166.857 43.9946 166.353 47.5628L159.7 46.6218C160.42 41.5317 162.864 36.8423 166.623 33.3359L171.206 38.2493Z" fill="#E44D4D"/>
<path d="M172.257 23.9002L166.146 24.9078C166.096 24.9255 166.044 24.9322 165.991 24.9276C165.939 24.923 165.888 24.9071 165.842 24.881C165.796 24.8549 165.756 24.8192 165.726 24.7764C165.695 24.7336 165.674 24.6847 165.664 24.633L165.627 23.0754L172.349 23.0757L172.379 23.7414C172.378 23.7774 172.366 23.8121 172.344 23.8406C172.322 23.8691 172.292 23.89 172.257 23.9002Z" fill="#2A2A2A"/>
</svg>
