<svg width="175" height="41" viewBox="0 0 175 41" fill="none" xmlns="http://www.w3.org/2000/svg">
<path d="M2.58239 40V13.8182H12.6051C14.4972 13.8182 16.0696 14.1165 17.3224 14.7131C18.5838 15.3011 19.5256 16.1065 20.1477 17.1293C20.7784 18.152 21.0938 19.3111 21.0938 20.6065C21.0938 21.6719 20.8892 22.5838 20.4801 23.3423C20.071 24.0923 19.5213 24.7017 18.831 25.1705C18.1406 25.6392 17.3693 25.9759 16.517 26.1804V26.4361C17.446 26.4872 18.3366 26.7727 19.1889 27.2926C20.0497 27.804 20.7528 28.5284 21.2983 29.4659C21.8438 30.4034 22.1165 31.5369 22.1165 32.8665C22.1165 34.2216 21.7884 35.4403 21.1321 36.5227C20.4759 37.5966 19.4872 38.4446 18.1662 39.0668C16.8452 39.6889 15.1832 40 13.1804 40H2.58239ZM7.32528 36.0369H12.4261C14.1477 36.0369 15.3878 35.7088 16.1463 35.0526C16.9134 34.3878 17.2969 33.5355 17.2969 32.4957C17.2969 31.7202 17.1051 31.0213 16.7216 30.3991C16.3381 29.7685 15.7926 29.2741 15.0852 28.9162C14.3778 28.5497 13.5341 28.3665 12.554 28.3665H7.32528V36.0369ZM7.32528 24.9531H12.017C12.8352 24.9531 13.5724 24.804 14.2287 24.5057C14.8849 24.1989 15.4006 23.7685 15.7756 23.2145C16.1591 22.652 16.3509 21.9872 16.3509 21.2202C16.3509 20.206 15.9929 19.3707 15.277 18.7145C14.5696 18.0582 13.517 17.7301 12.1193 17.7301H7.32528V24.9531ZM29.6048 40H24.5423L33.7596 13.8182H39.6147L48.8448 40H43.7823L36.7894 19.1875H36.5849L29.6048 40ZM29.771 29.7344H43.5778V33.544H29.771V29.7344ZM61.1655 40H52.2933V13.8182H61.3445C63.9439 13.8182 66.1768 14.3423 68.0433 15.3906C69.9183 16.4304 71.3587 17.9261 72.3643 19.8778C73.37 21.8295 73.8729 24.1648 73.8729 26.8835C73.8729 29.6108 73.3658 31.9545 72.3516 33.9148C71.3459 35.875 69.8928 37.3793 67.9922 38.4276C66.1001 39.4759 63.8246 40 61.1655 40ZM57.0362 35.8963H60.9354C62.7592 35.8963 64.2805 35.5639 65.4993 34.8991C66.718 34.2259 67.6342 33.2244 68.2479 31.8949C68.8615 30.5568 69.1683 28.8864 69.1683 26.8835C69.1683 24.8807 68.8615 23.2187 68.2479 21.8977C67.6342 20.5682 66.7266 19.5753 65.5249 18.919C64.3317 18.2543 62.8487 17.9219 61.076 17.9219H57.0362V35.8963Z" fill="white"/>
<path d="M78.3793 40V13.8182H83.1222V36.0241H94.6534V40H78.3793ZM148.04 22.652H143.259C143.122 21.8679 142.871 21.1733 142.504 20.5682C142.138 19.9545 141.682 19.4347 141.136 19.0085C140.591 18.5824 139.969 18.2628 139.27 18.0497C138.58 17.8281 137.834 17.7173 137.033 17.7173C135.609 17.7173 134.348 18.0753 133.249 18.7912C132.149 19.4986 131.288 20.5384 130.666 21.9105C130.044 23.2741 129.733 24.9403 129.733 26.9091C129.733 28.9119 130.044 30.5994 130.666 31.9716C131.297 33.3352 132.158 34.3665 133.249 35.0653C134.348 35.7557 135.605 36.1009 137.02 36.1009C137.804 36.1009 138.537 35.9986 139.219 35.794C139.909 35.581 140.527 35.2699 141.072 34.8608C141.626 34.4517 142.091 33.9489 142.466 33.3523C142.849 32.7557 143.114 32.0739 143.259 31.3068L148.04 31.3324C147.861 32.5767 147.473 33.7443 146.876 34.8352C146.288 35.9261 145.517 36.8892 144.562 37.7244C143.608 38.5511 142.491 39.1989 141.213 39.6676C139.935 40.1278 138.516 40.358 136.956 40.358C134.655 40.358 132.601 39.8253 130.794 38.7599C128.987 37.6946 127.564 36.1562 126.524 34.1449C125.484 32.1335 124.964 29.7216 124.964 26.9091C124.964 24.0881 125.489 21.6761 126.537 19.6733C127.585 17.6619 129.013 16.1236 130.82 15.0582C132.626 13.9929 134.672 13.4602 136.956 13.4602C138.413 13.4602 139.768 13.6648 141.021 14.0739C142.274 14.483 143.391 15.0838 144.371 15.8764C145.351 16.6605 146.156 17.6236 146.787 18.7656C147.426 19.8991 147.844 21.1946 148.04 22.652ZM152.383 40V13.8182H157.126V25.848H157.446L167.66 13.8182H173.451L163.326 25.5668L173.541 40H167.839L160.028 28.7756L157.126 32.2017V40H152.383Z" fill="#E44D4D"/>
<g clip-path="url(#clip0_2001_230)">
<path d="M109.803 26.0039L109.587 26.1643L109.602 26.4327L109.72 28.5809H108.757L109.039 26.4714L109.078 26.1774L108.839 26.002C108.686 25.8903 108.576 25.7282 108.527 25.5426C108.479 25.3569 108.495 25.16 108.574 24.9854C108.652 24.8109 108.787 24.67 108.956 24.5858C109.124 24.5015 109.315 24.4785 109.497 24.5204L109.498 24.5205C109.65 24.5553 109.79 24.6337 109.901 24.7471L110.252 24.4047L109.901 24.7471C110.012 24.8605 110.088 25.0042 110.121 25.1611C110.153 25.3181 110.14 25.4812 110.084 25.6309C110.027 25.7805 109.929 25.9098 109.803 26.0039Z" fill="#E44D4D" stroke="#E44D4D"/>
<path d="M100.091 17.3372L100.399 17.0495C100.414 17.0339 100.432 17.0215 100.452 17.013C100.472 17.0046 100.493 17.0002 100.515 17.0002C100.537 17.0002 100.558 17.0046 100.578 17.013C100.598 17.0215 100.616 17.0339 100.631 17.0495L102.456 19.0608C102.47 19.078 102.48 19.0978 102.486 19.119C102.492 19.1402 102.493 19.1624 102.49 19.1843C102.488 19.2062 102.481 19.2272 102.47 19.2463C102.458 19.2653 102.444 19.2819 102.426 19.295L102.279 19.4222L102.131 19.5493L100.98 18.5388L100.091 17.3372Z" fill="#E44D4D" stroke="#E44D4D"/>
<path d="M99.0712 24.947L99.0057 25.3755C99.0033 25.3979 98.9966 25.4195 98.9859 25.439C98.9753 25.4585 98.9609 25.4756 98.9437 25.489C98.9265 25.5025 98.9068 25.5122 98.8859 25.5174C98.865 25.5227 98.8433 25.5234 98.8221 25.5195L96.1294 25.1491C96.1084 25.1447 96.0884 25.1359 96.0707 25.1232C96.053 25.1106 96.0379 25.0943 96.0263 25.0755C96.0147 25.0566 96.0068 25.0355 96.0032 25.0135C95.9995 24.9914 95.9984 24.8683 96.0032 24.8464L96.0691 24.4487L97.5733 24.7551L99.0712 24.947Z" fill="#E44D4D" stroke="#E44D4D"/>
<path fill-rule="evenodd" clip-rule="evenodd" d="M102.075 19.5979C100.491 21.0359 99.4458 22.4227 99.1311 24.5493L96.1311 24.0493C96.5482 21.2308 97.9796 19.2647 100.079 17.3589L102.075 19.5979Z" fill="#E44D4D" stroke="#E44D4D" stroke-miterlimit="10"/>
<mask id="path-6-inside-1_2001_230" fill="white">
<path fill-rule="evenodd" clip-rule="evenodd" d="M110.696 17.1848C108.568 16.8168 106.378 17.1497 104.457 18.1336L103.071 15.4286C105.58 14.1446 108.437 13.71 111.214 14.1903C113.991 14.6707 116.536 16.0399 118.467 18.0919C120.398 20.1439 121.61 22.7675 121.921 25.5678C122.231 28.368 121.623 31.1933 120.189 33.6183C118.754 36.0433 116.57 37.9366 113.966 39.0133C111.362 40.09 108.479 40.2917 105.75 39.588C103.021 38.8844 100.595 37.3135 98.8364 35.1119C97.078 32.9103 96.0826 30.1971 96 27.3809L99.0383 27.2919C99.1016 29.4498 99.8643 31.5287 101.212 33.2156C102.559 34.9026 104.418 36.1062 106.509 36.6454C108.6 37.1845 110.809 37.03 112.805 36.205C114.8 35.38 116.473 33.9293 117.573 32.0712C118.672 30.2131 119.138 28.0482 118.9 25.9026C118.662 23.7569 117.733 21.7466 116.254 20.1743C114.774 18.602 112.823 17.5529 110.696 17.1848Z"/>
<path d="M104.845 17.9393L104.507 18.1149C104.487 18.1252 104.466 18.1316 104.444 18.1334C104.421 18.1353 104.399 18.1327 104.378 18.1258C104.357 18.1188 104.337 18.1077 104.321 18.0931C104.304 18.0784 104.29 18.0606 104.281 18.0406L103.051 15.6027C103.042 15.5825 103.038 15.5608 103.037 15.5388C103.037 15.5168 103.041 15.4949 103.049 15.4745C103.057 15.454 103.069 15.4354 103.085 15.4197C103.1 15.4041 103.119 15.3916 103.139 15.3832L103.497 15.211L104.173 16.5616L104.845 17.9393Z"/>
<path d="M99.0356 27.6032C99.0365 27.613 99.0354 27.623 99.0323 27.6324C99.0291 27.6418 99.024 27.6504 99.0174 27.6577C99.0107 27.665 99.0025 27.6709 98.9935 27.6749C98.9844 27.6788 98.9746 27.6809 98.9647 27.6808L97.5158 27.7247L96.0838 27.7585C96.0748 27.7594 96.0657 27.7585 96.0571 27.7557C96.0486 27.7529 96.0407 27.7483 96.034 27.7423C96.0273 27.7362 96.0219 27.7288 96.0183 27.7205C96.0147 27.7123 96.0128 27.7034 96.0129 27.6943V27.3567C96.0119 27.3125 96.0284 27.2697 96.0587 27.2374C96.089 27.2052 96.1308 27.1862 96.175 27.1845L98.8768 27.1034C98.8997 27.1021 98.9227 27.1053 98.9443 27.1129C98.966 27.1205 98.9859 27.1324 99.0028 27.1478C99.0198 27.1632 99.0336 27.1819 99.0433 27.2027C99.0529 27.2234 99.0584 27.246 99.0592 27.2689L99.0356 27.6032Z"/>
</mask>
<path fill-rule="evenodd" clip-rule="evenodd" d="M110.696 17.1848C108.568 16.8168 106.378 17.1497 104.457 18.1336L103.071 15.4286C105.58 14.1446 108.437 13.71 111.214 14.1903C113.991 14.6707 116.536 16.0399 118.467 18.0919C120.398 20.1439 121.61 22.7675 121.921 25.5678C122.231 28.368 121.623 31.1933 120.189 33.6183C118.754 36.0433 116.57 37.9366 113.966 39.0133C111.362 40.09 108.479 40.2917 105.75 39.588C103.021 38.8844 100.595 37.3135 98.8364 35.1119C97.078 32.9103 96.0826 30.1971 96 27.3809L99.0383 27.2919C99.1016 29.4498 99.8643 31.5287 101.212 33.2156C102.559 34.9026 104.418 36.1062 106.509 36.6454C108.6 37.1845 110.809 37.03 112.805 36.205C114.8 35.38 116.473 33.9293 117.573 32.0712C118.672 30.2131 119.138 28.0482 118.9 25.9026C118.662 23.7569 117.733 21.7466 116.254 20.1743C114.774 18.602 112.823 17.5529 110.696 17.1848Z" fill="white"/>
<path d="M104.845 17.9393L104.507 18.1149C104.487 18.1252 104.466 18.1316 104.444 18.1334C104.421 18.1353 104.399 18.1327 104.378 18.1258C104.357 18.1188 104.337 18.1077 104.321 18.0931C104.304 18.0784 104.29 18.0606 104.281 18.0406L103.051 15.6027C103.042 15.5825 103.038 15.5608 103.037 15.5388C103.037 15.5168 103.041 15.4949 103.049 15.4745C103.057 15.454 103.069 15.4354 103.085 15.4197C103.1 15.4041 103.119 15.3916 103.139 15.3832L103.497 15.211L104.173 16.5616L104.845 17.9393Z" fill="white"/>
<path d="M99.0356 27.6032C99.0365 27.613 99.0354 27.623 99.0323 27.6324C99.0291 27.6418 99.024 27.6504 99.0174 27.6577C99.0107 27.665 99.0025 27.6709 98.9935 27.6749C98.9844 27.6788 98.9746 27.6809 98.9647 27.6808L97.5158 27.7247L96.0838 27.7585C96.0748 27.7594 96.0657 27.7585 96.0571 27.7557C96.0486 27.7529 96.0407 27.7483 96.034 27.7423C96.0273 27.7362 96.0219 27.7288 96.0183 27.7205C96.0147 27.7123 96.0128 27.7034 96.0129 27.6943V27.3567C96.0119 27.3125 96.0284 27.2697 96.0587 27.2374C96.089 27.2052 96.1308 27.1862 96.175 27.1845L98.8768 27.1034C98.8997 27.1021 98.9227 27.1053 98.9443 27.1129C98.966 27.1205 98.9859 27.1324 99.0028 27.1478C99.0198 27.1632 99.0336 27.1819 99.0433 27.2027C99.0529 27.2234 99.0584 27.246 99.0592 27.2689L99.0356 27.6032Z" fill="white"/>
<path d="M104.457 18.1336L103.566 18.5894C103.818 19.0809 104.421 19.2754 104.912 19.0237L104.457 18.1336ZM110.696 17.1848L110.866 16.1994L110.696 17.1848ZM103.071 15.4286L102.616 14.5384C102.379 14.6593 102.201 14.869 102.12 15.1215C102.038 15.3739 102.06 15.6483 102.181 15.8844L103.071 15.4286ZM111.214 14.1903L111.044 15.1757L111.214 14.1903ZM118.467 18.0919L117.739 18.7772L118.467 18.0919ZM121.921 25.5678L120.927 25.6779V25.6779L121.921 25.5678ZM120.189 33.6183L121.049 34.1275L120.189 33.6183ZM105.75 39.588L105.5 40.5564H105.5L105.75 39.588ZM98.8364 35.1119L99.6178 34.4878L98.8364 35.1119ZM96 27.3809L95.9707 26.3814C95.7056 26.3891 95.4544 26.5019 95.2725 26.6949C95.0905 26.8878 94.9927 27.1451 95.0004 27.4102L96 27.3809ZM99.0383 27.2919L100.038 27.2626C100.022 26.7105 99.5611 26.2761 99.009 26.2923L99.0383 27.2919ZM101.212 33.2156L101.993 32.5916L101.212 33.2156ZM106.509 36.6454L106.259 37.6137L106.509 36.6454ZM112.805 36.205L112.423 35.2809L112.805 36.205ZM117.573 32.0712L116.712 31.562L117.573 32.0712ZM118.9 25.9026L119.894 25.7924L118.9 25.9026ZM104.845 17.9393L105.306 18.8265L106.171 18.3769L105.743 17.5008L104.845 17.9393ZM104.507 18.1149L104.046 17.2276L104.04 17.2306L104.507 18.1149ZM104.281 18.0406L105.181 17.6052L105.177 17.5977L105.174 17.5903L104.281 18.0406ZM103.051 15.6027L102.136 16.0061L102.147 16.0298L102.158 16.0529L103.051 15.6027ZM103.139 15.3832L103.523 16.3064L103.548 16.296L103.573 16.2843L103.139 15.3832ZM103.497 15.211L104.391 14.7637L103.951 13.8829L103.064 14.3098L103.497 15.211ZM104.173 16.5616L105.071 16.1231L105.067 16.1143L104.173 16.5616ZM99.0356 27.6032L98.0381 27.5326L98.0322 27.6156L98.0401 27.6984L99.0356 27.6032ZM98.9647 27.6808L98.9692 26.6808L98.9518 26.6808L98.9344 26.6813L98.9647 27.6808ZM97.5158 27.7247L97.5393 28.7245L97.5461 28.7243L97.5158 27.7247ZM96.0838 27.7585L96.0602 26.7588L96.0193 26.7597L95.9785 26.764L96.0838 27.7585ZM96.0129 27.6943L97.0129 27.6999V27.6943H96.0129ZM96.0129 27.3567H97.0129V27.3463L97.0126 27.3359L96.0129 27.3567ZM96.175 27.1845L96.145 26.1849L96.1352 26.1853L96.175 27.1845ZM98.8768 27.1034L98.9068 28.103L98.9216 28.1025L98.9364 28.1016L98.8768 27.1034ZM99.0592 27.2689L100.057 27.3394L100.061 27.2855L100.059 27.2314L99.0592 27.2689ZM104.912 19.0237C106.641 18.1386 108.611 17.8391 110.525 18.1702L110.866 16.1994C108.525 15.7945 106.116 16.1608 104.001 17.2434L104.912 19.0237ZM102.181 15.8844L103.566 18.5894L105.347 17.6778L103.961 14.9728L102.181 15.8844ZM111.384 13.205C108.394 12.6877 105.317 13.1557 102.616 14.5384L103.527 16.3187C105.842 15.1335 108.48 14.7323 111.044 15.1757L111.384 13.205ZM119.196 17.4066C117.116 15.1968 114.375 13.7222 111.384 13.205L111.044 15.1757C113.607 15.6191 115.957 16.8831 117.739 18.7772L119.196 17.4066ZM122.915 25.4576C122.58 22.4418 121.275 19.6164 119.196 17.4066L117.739 18.7772C119.522 20.6713 120.64 23.0931 120.927 25.6779L122.915 25.4576ZM121.049 34.1275C122.594 31.516 123.249 28.4733 122.915 25.4576L120.927 25.6779C121.214 28.2628 120.652 30.8707 119.328 33.1091L121.049 34.1275ZM114.348 39.9374C117.153 38.778 119.504 36.739 121.049 34.1275L119.328 33.1091C118.004 35.3475 115.988 37.0953 113.584 38.0892L114.348 39.9374ZM105.5 40.5564C108.439 41.3141 111.544 41.0969 114.348 39.9374L113.584 38.0892C111.18 39.0831 108.518 39.2693 106 38.6197L105.5 40.5564ZM98.0551 35.736C99.9488 38.107 102.562 39.7986 105.5 40.5564L106 38.6197C103.481 37.9702 101.241 36.5201 99.6178 34.4878L98.0551 35.736ZM95.0004 27.4102C95.0894 30.4431 96.1614 33.365 98.0551 35.736L99.6178 34.4878C97.9946 32.4556 97.0758 29.9511 96.9996 27.3516L95.0004 27.4102ZM99.009 26.2923L95.9707 26.3814L96.0293 28.3805L99.0676 28.2915L99.009 26.2923ZM101.993 32.5916C100.781 31.074 100.095 29.2038 100.038 27.2626L98.0387 27.3212C98.1084 29.6958 98.9477 31.9834 100.43 33.8397L101.993 32.5916ZM106.759 35.6771C104.878 35.192 103.205 34.1092 101.993 32.5916L100.43 33.8397C101.913 35.696 103.959 37.0205 106.259 37.6137L106.759 35.6771ZM112.423 35.2809C110.627 36.0231 108.64 36.1621 106.759 35.6771L106.259 37.6137C108.56 38.207 110.991 38.0369 113.187 37.1291L112.423 35.2809ZM116.712 31.562C115.723 33.2335 114.218 34.5387 112.423 35.2809L113.187 37.1291C115.382 36.2214 117.224 34.625 118.433 32.5804L116.712 31.562ZM117.906 26.0128C118.12 27.943 117.701 29.8904 116.712 31.562L118.433 32.5804C119.643 30.5357 120.155 28.1535 119.894 25.7924L117.906 26.0128ZM115.525 20.8596C116.856 22.2741 117.692 24.0826 117.906 26.0128L119.894 25.7924C119.632 23.4313 118.61 21.2191 116.982 19.489L115.525 20.8596ZM110.525 18.1702C112.439 18.5013 114.194 19.4452 115.525 20.8596L116.982 19.489C115.354 17.7589 113.207 16.6044 110.866 16.1994L110.525 18.1702ZM104.383 17.052L104.046 17.2276L104.968 19.0021L105.306 18.8265L104.383 17.052ZM104.04 17.2306C104.139 17.1783 104.248 17.1464 104.359 17.137L104.528 19.1299C104.684 19.1167 104.835 19.0722 104.974 18.9991L104.04 17.2306ZM104.359 17.137C104.471 17.1275 104.583 17.1407 104.69 17.1756L104.066 19.0759C104.215 19.1247 104.372 19.1431 104.528 19.1299L104.359 17.137ZM104.69 17.1756C104.796 17.2106 104.895 17.2667 104.979 17.3405L103.662 18.8457C103.78 18.9488 103.917 19.027 104.066 19.0759L104.69 17.1756ZM104.979 17.3405C105.063 17.4142 105.132 17.5043 105.181 17.6052L103.38 18.4759C103.449 18.6169 103.544 18.7426 103.662 18.8457L104.979 17.3405ZM105.174 17.5903L103.944 15.1524L102.158 16.0529L103.388 18.4908L105.174 17.5903ZM103.966 15.1992C104.011 15.3008 104.035 15.4104 104.037 15.5214L102.037 15.5561C102.04 15.7112 102.074 15.8642 102.136 16.0061L103.966 15.1992ZM104.037 15.5214C104.039 15.6325 104.019 15.7428 103.977 15.8459L102.121 15.103C102.063 15.247 102.035 15.4011 102.037 15.5561L104.037 15.5214ZM103.977 15.8459C103.936 15.9491 103.875 16.0429 103.797 16.1219L102.373 14.7176C102.264 14.828 102.178 14.959 102.121 15.103L103.977 15.8459ZM103.797 16.1219C103.719 16.201 103.626 16.2637 103.523 16.3064L102.755 14.46C102.612 14.5196 102.482 14.6072 102.373 14.7176L103.797 16.1219ZM103.573 16.2843L103.931 16.1121L103.064 14.3098L102.706 14.482L103.573 16.2843ZM102.603 15.6583L103.278 17.0089L105.067 16.1143L104.391 14.7637L102.603 15.6583ZM103.274 17.0001L103.946 18.3777L105.743 17.5008L105.071 16.1232L103.274 17.0001ZM98.0401 27.6984C98.0278 27.5692 98.0426 27.4387 98.0838 27.3156L99.9807 27.9492C100.028 27.8072 100.045 27.6569 100.031 27.5079L98.0401 27.6984ZM98.0838 27.3156C98.1249 27.1924 98.1914 27.0793 98.2789 26.9834L99.7558 28.3321C99.8567 28.2216 99.9333 28.0911 99.9807 27.9492L98.0838 27.3156ZM98.2789 26.9834C98.3665 26.8875 98.4731 26.8111 98.592 26.759L99.3949 28.5908C99.5319 28.5307 99.6549 28.4426 99.7558 28.3321L98.2789 26.9834ZM98.592 26.759C98.711 26.7068 98.8395 26.6802 98.9692 26.6808L98.9601 28.6808C99.1096 28.6815 99.2577 28.6509 99.3949 28.5908L98.592 26.759ZM98.9344 26.6813L97.4855 26.7252L97.5461 28.7243L98.9949 28.6804L98.9344 26.6813ZM97.4922 26.725L96.0602 26.7588L96.1074 28.7582L97.5393 28.7244L97.4922 26.725ZM95.9785 26.764C96.1094 26.7502 96.2418 26.7641 96.3669 26.8049L95.7474 28.7065C95.8897 28.7529 96.0402 28.7687 96.189 28.7529L95.9785 26.764ZM96.3669 26.8049C96.492 26.8456 96.6071 26.9123 96.7048 27.0007L95.3631 28.4839C95.4742 28.5843 95.6051 28.6602 95.7474 28.7065L96.3669 26.8049ZM96.7048 27.0007C96.8025 27.089 96.8804 27.1969 96.9334 27.3174L95.1032 28.1237C95.1635 28.2607 95.2521 28.3834 95.3631 28.4839L96.7048 27.0007ZM96.9334 27.3174C96.9865 27.4379 97.0136 27.5682 97.0128 27.6999L95.0129 27.6888C95.012 27.8385 95.0428 27.9867 95.1032 28.1237L96.9334 27.3174ZM97.0129 27.6943V27.3567H95.0129V27.6943H97.0129ZM97.0126 27.3359C97.0172 27.5536 96.9361 27.7644 96.7868 27.9229L95.3306 26.552C95.1207 26.7749 95.0067 27.0713 95.0131 27.3775L97.0126 27.3359ZM96.7868 27.9229C96.6376 28.0814 96.4322 28.175 96.2147 28.1837L96.1352 26.1853C95.8294 26.1974 95.5404 26.3291 95.3306 26.552L96.7868 27.9229ZM96.205 28.184L98.9068 28.103L98.8469 26.1039L96.145 26.1849L96.205 28.184ZM98.9364 28.1016C98.8263 28.1082 98.7161 28.0927 98.6122 28.0561L99.2765 26.1697C99.1293 26.1178 98.9732 26.0959 98.8173 26.1052L98.9364 28.1016ZM98.6122 28.0561C98.5082 28.0195 98.4126 27.9625 98.3309 27.8884L99.6748 26.4072C99.5591 26.3022 99.4237 26.2215 99.2765 26.1697L98.6122 28.0561ZM98.3309 27.8884C98.2493 27.8143 98.1832 27.7247 98.1367 27.6248L99.9498 26.7806C99.8839 26.639 99.7904 26.5121 99.6748 26.4072L98.3309 27.8884ZM98.1367 27.6248C98.0902 27.5248 98.0641 27.4165 98.0599 27.3063L100.059 27.2314C100.053 27.0754 100.016 26.9221 99.9498 26.7806L98.1367 27.6248ZM98.0617 27.1983L98.0381 27.5326L100.033 27.6737L100.057 27.3394L98.0617 27.1983Z" fill="white" mask="url(#path-6-inside-1_2001_230)"/>
<path d="M104.47 11.4672L102.191 12.0978C102.171 12.1038 102.15 12.1049 102.129 12.1013C102.109 12.0976 102.089 12.0891 102.072 12.0766C102.055 12.0641 102.041 12.0478 102.032 12.029C102.022 12.0102 102.017 11.9894 102.016 11.9682L102.032 11L104.5 10.5L104.508 11.3899C104.51 11.4052 104.507 11.4205 104.5 11.4342C104.493 11.4479 104.483 11.4594 104.47 11.4672Z" fill="white" stroke="white"/>
<path fill-rule="evenodd" clip-rule="evenodd" d="M104.466 8.63597C104.471 5.70207 106.774 3.42057 109.501 3.42057C112.229 3.42057 114.534 5.70742 114.534 8.64364V17H117V8.64364C117 4.47412 113.694 1 109.501 1C105.306 1 102 4.4741 102 8.64633V8.6572L102.052 11.5109L104.506 10.7503L104.466 8.63597Z" fill="white" stroke="white" stroke-miterlimit="10"/>
</g>
<defs>
<clipPath id="clip0_2001_230">
<rect width="27" height="40" fill="white" transform="translate(95)"/>
</clipPath>
</defs>
</svg>
